<svg width="25" height="24" viewBox="0 0 25 24" fill="none" xmlns="http://www.w3.org/2000/svg">
<path d="M9.04953 23.5554C10.1355 23.5554 11.0158 22.675 11.0158 21.5891C11.0158 20.5031 10.1355 19.6228 9.04953 19.6228C7.96359 19.6228 7.08325 20.5031 7.08325 21.5891C7.08325 22.675 7.96359 23.5554 9.04953 23.5554Z" fill="#FFFFFF"/>
<path d="M19.2741 23.5554C20.3601 23.5554 21.2404 22.675 21.2404 21.5891C21.2404 20.5031 20.3601 19.6228 19.2741 19.6228C18.1882 19.6228 17.3079 20.5031 17.3079 21.5891C17.3079 22.675 18.1882 23.5554 19.2741 23.5554Z" fill="#FFFFFF"/>
<path d="M24.4651 3.41287C24.3918 3.31769 24.2977 3.24056 24.19 3.18739C24.0823 3.13422 23.9639 3.10642 23.8437 3.10613H5.67531L5.32138 1.98142C5.2825 1.86066 5.21499 1.75109 5.1246 1.66207C5.03421 1.57305 4.92362 1.50722 4.80228 1.47019L1.57758 0.479181C1.47843 0.448712 1.37424 0.43807 1.27098 0.447865C1.16771 0.45766 1.06738 0.487699 0.975723 0.536267C0.790611 0.634354 0.652046 0.801959 0.59051 1.00221C0.528974 1.20246 0.549509 1.41896 0.647596 1.60407C0.745683 1.78918 0.913289 1.92775 1.11354 1.98928L3.93712 2.85445L7.53934 14.2353L6.25733 15.2892L6.15508 15.3914C5.83804 15.7586 5.65841 16.2244 5.64694 16.7094C5.63546 17.1943 5.79284 17.6682 6.09216 18.0499C6.30653 18.3106 6.57894 18.5175 6.88759 18.654C7.19624 18.7906 7.53257 18.8531 7.86968 18.8364H20.9966C21.2052 18.8364 21.4052 18.7535 21.5527 18.606C21.7002 18.4585 21.7831 18.2585 21.7831 18.0499C21.7831 17.8413 21.7002 17.6412 21.5527 17.4937C21.4052 17.3462 21.2052 17.2633 20.9966 17.2633H7.74384C7.65327 17.2603 7.56503 17.2339 7.48764 17.1867C7.41025 17.1395 7.34633 17.0732 7.30205 16.9942C7.25777 16.9151 7.23463 16.8259 7.23487 16.7353C7.2351 16.6447 7.2587 16.5557 7.30339 16.4768L9.19888 14.9038H21.3348C21.5144 14.909 21.6905 14.8526 21.8336 14.7438C21.9767 14.6351 22.0782 14.4806 22.1213 14.3061L24.6381 4.08141C24.662 3.96415 24.6589 3.84298 24.6289 3.72713C24.5989 3.61128 24.5429 3.5038 24.4651 3.41287Z" fill="#FFFFFF"/>
</svg>
