<svg width="32" height="32" viewBox="0 0 32 32" fill="none" xmlns="http://www.w3.org/2000/svg">
<path d="M9.66667 2.88H9.33333C9.51667 2.88 9.66667 2.736 9.66667 2.56V2.88H22.3333V2.56C22.3333 2.736 22.4833 2.88 22.6667 2.88H22.3333V5.76H25.3333V2.56C25.3333 1.148 24.1375 0 22.6667 0H9.33333C7.8625 0 6.66667 1.148 6.66667 2.56V5.76H9.66667V2.88ZM30.6667 5.76H1.33333C0.595833 5.76 0 6.332 0 7.04V8.32C0 8.496 0.15 8.64 0.333333 8.64H2.85L3.87917 29.56C3.94583 30.924 5.12083 32 6.54167 32H25.4583C26.8833 32 28.0542 30.928 28.1208 29.56L29.15 8.64H31.6667C31.85 8.64 32 8.496 32 8.32V7.04C32 6.332 31.4042 5.76 30.6667 5.76ZM25.1375 29.12H6.8625L5.85417 8.64H26.1458L25.1375 29.12Z" fill="#1C1C1C"/>
</svg>
