<svg width="19" height="19" viewBox="0 0 19 19" fill="none" xmlns="http://www.w3.org/2000/svg">
<path d="M11.6679 6.31102L4.5128 13.4661L4.04492 15.0621L5.60847 14.6101L12.7873 7.43123L11.6679 6.31102ZM12.8886 5.09027L14.008 6.20968L15.0515 5.16627C15.1257 5.09204 15.1674 4.99137 15.1674 4.88641C15.1674 4.78145 15.1257 4.68079 15.0515 4.60656L14.491 4.04685C14.4167 3.97264 14.3161 3.93096 14.2111 3.93096C14.1062 3.93096 14.0055 3.97264 13.9313 4.04685L12.8894 5.09027H12.8886ZM15.6112 2.92743L16.1709 3.48714C16.5419 3.85829 16.7504 4.36161 16.7504 4.88641C16.7504 5.41122 16.5419 5.91453 16.1709 6.28568L6.43971 16.0176L3.09888 16.9835C2.96271 17.0227 2.81849 17.0247 2.68128 16.9892C2.54407 16.9537 2.41891 16.8821 2.31886 16.7817C2.21881 16.6813 2.14754 16.5559 2.11249 16.4186C2.07743 16.2813 2.07989 16.1371 2.11959 16.001L3.10759 12.6325L12.8134 2.92664C13.1846 2.5556 13.6879 2.34717 14.2127 2.34717C14.7375 2.34717 15.2408 2.5556 15.612 2.92664L15.6112 2.92743Z" fill="#C83F3B"/>
</svg>
