<svg width="32" height="32" viewBox="0 0 32 32" fill="none" xmlns="http://www.w3.org/2000/svg">
<path d="M26.5 29V25.9412H20.5V22.8824H26.5V19.8235L31 24.4118L26.5 29ZM13 3C14.5913 3 16.1174 3.64454 17.2426 4.79182C18.3679 5.9391 19 7.49515 19 9.11765C19 10.7401 18.3679 12.2962 17.2426 13.4435C16.1174 14.5908 14.5913 15.2353 13 15.2353C11.4087 15.2353 9.88258 14.5908 8.75736 13.4435C7.63214 12.2962 7 10.7401 7 9.11765C7 7.49515 7.63214 5.9391 8.75736 4.79182C9.88258 3.64454 11.4087 3 13 3ZM13 18.2941C14.725 18.2941 16.375 18.4776 17.86 18.8141C16.6479 20.4178 15.9935 22.3871 16 24.4118C16 25.4824 16.18 26.5071 16.51 27.4706H1V24.4118C1 21.0318 6.37 18.2941 13 18.2941Z" fill="#FFFFFF"/>
</svg>
