<svg width="19" height="19" viewBox="0 0 19 19" fill="none" xmlns="http://www.w3.org/2000/svg">
<path opacity="0.5" d="M9.05352 3.89209L7.39414 7.25479L3.68164 7.79443L6.36758 10.4136L5.73301 14.1103L9.05352 12.3647L12.374 14.1085L11.7395 10.4118L14.4254 7.79443L10.7129 7.25479L9.05352 3.89209Z" fill="#F8E53D"/>
<path d="M16.016 6.74698L11.5529 6.09835L9.55783 2.05362C9.50333 1.94288 9.41369 1.85323 9.30294 1.79874C9.02521 1.66163 8.68771 1.77589 8.54884 2.05362L6.55372 6.09835L2.09064 6.74698C1.96759 6.76456 1.85509 6.82257 1.76896 6.91046C1.66483 7.01748 1.60745 7.16147 1.60942 7.31078C1.6114 7.46009 1.67258 7.60251 1.7795 7.70674L5.00861 10.855L4.24572 15.3005C4.22783 15.4039 4.23927 15.5103 4.27875 15.6075C4.31823 15.7047 4.38416 15.789 4.46908 15.8506C4.55399 15.9123 4.65449 15.949 4.75917 15.9564C4.86385 15.9639 4.96853 15.9419 5.06134 15.8929L9.05333 13.794L13.0453 15.8929C13.1543 15.9509 13.2809 15.9702 13.4022 15.9491C13.708 15.8964 13.9137 15.6064 13.861 15.3005L13.0981 10.855L16.3272 7.70674C16.4151 7.62061 16.4731 7.50811 16.4906 7.38507C16.5381 7.07745 16.3236 6.79268 16.016 6.74698ZM11.7393 10.412L12.3738 14.1087L9.05333 12.3649L5.73283 14.1105L6.3674 10.4138L3.68146 7.79464L7.39396 7.25499L9.05333 3.89229L10.7127 7.25499L14.4252 7.79464L11.7393 10.412Z" fill="#1C1C1C"/>
</svg>
