<svg width="44" height="32" viewBox="0 0 44 32" fill="none" xmlns="http://www.w3.org/2000/svg">
<path d="M43.0815 4.93567C42.8259 3.98481 42.3387 3.11874 41.6672 2.42132C40.9956 1.7239 40.1624 1.21876 39.2482 0.954819C35.8165 4.56572e-05 22.021 4.58773e-05 22.021 4.58773e-05C22.021 4.58773e-05 8.25161 -0.0228575 4.78416 0.954819C3.87143 1.21992 3.03984 1.72559 2.36978 2.42295C1.69971 3.1203 1.21384 3.98576 0.959107 4.93567C0.307431 8.59189 -0.0135292 12.3036 0.000436811 16.0222C-0.0059219 19.7229 0.314988 23.4163 0.959107 27.0558C1.21466 28.0062 1.70068 28.8723 2.37051 29.5709C3.04034 30.2695 3.87149 30.7772 4.78416 31.0452C8.21584 32 22.021 32 22.021 32C22.021 32 35.7821 32 39.2482 31.0452C40.1623 30.7784 40.9951 30.2712 41.6664 29.5725C42.3377 28.8739 42.8251 28.0072 43.0815 27.0558C43.7128 23.4185 44.0209 19.7196 43.9989 16.0222C44.0209 12.3005 43.7197 8.59587 43.0815 4.93567ZM17.6141 22.8745V9.13982L29.0975 16.0222L17.6141 22.8745Z" fill="white"/>
</svg>
